<?xml version="1.0" encoding="UTF-8" standalone="no"?>
<!-- Created with Inkscape (http://www.inkscape.org/) -->

<svg
   xmlns:dc="http://purl.org/dc/elements/1.1/"
   xmlns:cc="http://creativecommons.org/ns#"
   xmlns:rdf="http://www.w3.org/1999/02/22-rdf-syntax-ns#"
   xmlns:svg="http://www.w3.org/2000/svg"
   xmlns="http://www.w3.org/2000/svg"
   xmlns:sodipodi="http://sodipodi.sourceforge.net/DTD/sodipodi-0.dtd"
   xmlns:inkscape="http://www.inkscape.org/namespaces/inkscape"
   width="16"
   height="16"
   id="svg2"
   version="1.1"
   inkscape:version="0.48.3.1 r9886"
   sodipodi:docname="gear.svg">
  <sodipodi:namedview
     id="base"
     pagecolor="#ffffff"
     bordercolor="#666666"
     borderopacity="1.0"
     inkscape:pageopacity="0.0"
     inkscape:pageshadow="2"
     inkscape:zoom="34.6875"
     inkscape:cx="4.1369369"
     inkscape:cy="8"
     inkscape:document-units="px"
     inkscape:current-layer="layer1"
     showgrid="false"
     inkscape:window-width="1231"
     inkscape:window-height="776"
     inkscape:window-x="49"
     inkscape:window-y="24"
     inkscape:window-maximized="1" />
  <defs
     id="defs4" />
  <metadata
     id="metadata7">
    <rdf:RDF>
      <cc:Work
         rdf:about="">
        <dc:format>image/svg+xml</dc:format>
        <dc:type
           rdf:resource="http://purl.org/dc/dcmitype/StillImage" />
        <dc:title />
      </cc:Work>
    </rdf:RDF>
  </metadata>
  <g
     id="layer1"
     inkscape:groupmode="layer"
     inkscape:label="Ebene 1"
     transform="translate(0,-1036.3622)">
    <path
       style="fill:#666666;fill-opacity:1;stroke:#666666;stroke-width:0.12664533;stroke-opacity:1"
       d="M 6.53125 0.59375 L 6.375 1.65625 L 6.59375 2.5 L 5.09375 3.125 L 4.65625 2.375 L 3.78125 1.71875 L 1.6875 3.8125 L 2.34375 4.65625 L 3.125 5.125 L 2.5 6.59375 L 1.65625 6.375 L 0.5625 6.53125 L 0.5625 9.5 L 1.65625 9.625 L 2.5 9.40625 L 3.125 10.90625 L 2.34375 11.375 L 1.6875 12.21875 C 1.6771885 12.20545 3.78125 14.3125 3.78125 14.3125 L 4.65625 13.65625 L 5.09375 12.90625 L 6.59375 13.53125 L 6.375 14.375 L 6.53125 15.4375 C 6.531849 15.4635 9.46875 15.4375 9.46875 15.4375 L 9.625 14.375 L 9.40625 13.53125 L 10.90625 12.90625 L 11.34375 13.65625 L 12.21875 14.3125 L 14.3125 12.21875 L 13.65625 11.375 L 12.90625 10.90625 L 13.5 9.40625 L 14.375 9.625 L 15.4375 9.5 L 15.4375 6.53125 L 14.375 6.375 L 13.5 6.59375 L 12.90625 5.125 L 13.65625 4.65625 L 14.3125 3.8125 L 12.21875 1.71875 L 11.34375 2.375 L 10.90625 3.125 L 9.40625 2.5 L 9.625 1.65625 L 9.46875 0.59375 L 6.53125 0.59375 z M 8 4.53125 C 9.9329966 4.53125 11.5 6.0982534 11.5 8.03125 C 11.5 9.9642466 9.9329966 11.53125 8 11.53125 C 6.0670034 11.53125 4.5 9.9642466 4.5 8.03125 C 4.5 6.0982534 6.0670034 4.53125 8 4.53125 z "
       transform="translate(0,1036.3622)"
       id="path3538" />
    <path
       style="fill:#4d4d4d;fill-opacity:1"
       d="m 8,1039.618 c -2.6317869,0 -4.75,2.1494 -4.75,4.7812 0,2.6318 2.1182131,4.75 4.75,4.75 2.631787,0 4.75,-2.1182 4.75,-4.75 0,-2.6318 -2.118213,-4.7812 -4.75,-4.7812 z m 0,1.7812 c 1.6568543,0 3,1.3432 3,3 0,1.6569 -1.3431457,3 -3,3 -1.6568543,0 -3,-1.3431 -3,-3 0,-1.6568 1.3431457,-3 3,-3 z"
       id="path3549"
       inkscape:connector-curvature="0" />
    <path
       style="fill:#808080;fill-opacity:1"
       d="m 8,1039.9461 c -2.44805,0 -4.4375,1.9895 -4.4375,4.4375 0,2.4481 1.98945,4.4375 4.4375,4.4375 2.44805,0 4.4375,-1.9894 4.4375,-4.4375 0,-2.448 -1.98945,-4.4375 -4.4375,-4.4375 z m 0,1.4375 c 1.6568543,0 3,1.3431 3,3 0,1.6569 -1.3431457,3 -3,3 -1.6568543,0 -3,-1.3431 -3,-3 0,-1.6569 1.3431457,-3 3,-3 z"
       id="path3549-2"
       inkscape:connector-curvature="0" />
    <path
       style="fill:#4d4d4d;fill-opacity:1"
       d="m 7.9843752,1040.5868 c -2.0983285,0 -3.78125,1.7141 -3.78125,3.8125 0,2.0983 1.6829214,3.7812 3.78125,3.7812 2.0983288,0 3.8124998,-1.6829 3.8124998,-3.7812 0,-2.0984 -1.714171,-3.8125 -3.8124997,-3.8125 z m 0,0.9062 c 1.5947299,0 2.9062498,1.3115 2.9062498,2.9063 0,1.5947 -1.3115199,2.875 -2.9062497,2.875 -1.5947298,0 -2.875,-1.2803 -2.875,-2.875 0,-1.5948 1.2802702,-2.9063 2.875,-2.9063 z"
       id="path3549-4"
       inkscape:connector-curvature="0" />
  </g>
</svg>
