<?xml version="1.0" encoding="UTF-8" standalone="no"?>
<!-- Created with Inkscape (http://www.inkscape.org/) -->

<svg
   xmlns:dc="http://purl.org/dc/elements/1.1/"
   xmlns:cc="http://creativecommons.org/ns#"
   xmlns:rdf="http://www.w3.org/1999/02/22-rdf-syntax-ns#"
   xmlns:svg="http://www.w3.org/2000/svg"
   xmlns="http://www.w3.org/2000/svg"
   xmlns:sodipodi="http://sodipodi.sourceforge.net/DTD/sodipodi-0.dtd"
   xmlns:inkscape="http://www.inkscape.org/namespaces/inkscape"
   width="16"
   height="16"
   id="svg2"
   version="1.1"
   inkscape:version="0.48.3.1 r9886"
   sodipodi:docname="help.svg">
  <defs
     id="defs4" />
  <sodipodi:namedview
     id="base"
     pagecolor="#ffffff"
     bordercolor="#666666"
     borderopacity="1.0"
     inkscape:pageopacity="0.0"
     inkscape:pageshadow="2"
     inkscape:zoom="11.2"
     inkscape:cx="10.96513"
     inkscape:cy="13.289164"
     inkscape:document-units="px"
     inkscape:current-layer="layer1"
     showgrid="false"
     inkscape:window-width="1231"
     inkscape:window-height="776"
     inkscape:window-x="49"
     inkscape:window-y="24"
     inkscape:window-maximized="1" />
  <metadata
     id="metadata7">
    <rdf:RDF>
      <cc:Work
         rdf:about="">
        <dc:format>image/svg+xml</dc:format>
        <dc:type
           rdf:resource="http://purl.org/dc/dcmitype/StillImage" />
        <dc:title />
      </cc:Work>
    </rdf:RDF>
  </metadata>
  <g
     inkscape:label="Ebene 1"
     inkscape:groupmode="layer"
     id="layer1"
     transform="translate(0,-1036.3622)">
    <g
       style="font-size:21.58273315px;font-style:normal;font-variant:normal;font-weight:normal;font-stretch:normal;line-height:125%;letter-spacing:0px;word-spacing:0px;fill:#666666;fill-opacity:1;stroke:none;font-family:Ubuntu Mono;-inkscape-font-specification:Ubuntu Mono"
       id="text2985">
      <path
         d="m 8.8647799,1040.132 c -0.4748269,0 -0.9136754,0.079 -1.3165467,0.2374 -0.4028832,0.1439 -0.8848971,0.3381 -1.4460432,0.5827 l -0.323741,-2.0504 c 0.5899234,-0.3165 1.2014335,-0.5611 1.8345324,-0.7338 0.6330869,-0.1726 1.2949567,-0.259 1.9856114,-0.259 0.6330852,0 1.1654582,0.072 1.5971222,0.2159 0.446033,0.1439 0.805745,0.3453 1.079137,0.6043 0.287759,0.2446 0.496391,0.5324 0.625899,0.8633 0.129485,0.3309 0.194233,0.6906 0.194245,1.0791 -1.2e-5,0.4317 -0.06476,0.8202 -0.194245,1.1655 -0.129508,0.3309 -0.309363,0.6403 -0.539568,0.928 -0.215838,0.2878 -0.474831,0.5612 -0.776979,0.8202 -0.302168,0.2446 -0.633103,0.4892 -0.992805,0.7338 -0.330944,0.2446 -0.6115196,0.4532 -0.8417271,0.6259 -0.2302237,0.1727 -0.4316623,0.3453 -0.6043165,0.518 -0.1582807,0.1727 -0.2949712,0.3597 -0.4100719,0.5611 -0.1151149,0.1871 -0.2158342,0.4173 -0.3021583,0.6907 l -2.4604316,0 c 0.100715,-0.6619 0.3237364,-1.2446 0.6690648,-1.7482 0.3597068,-0.5036 0.94244,-1.0432 1.7482014,-1.6187 0.3453166,-0.259 0.6330861,-0.4748 0.8633093,-0.6475 0.2445964,-0.187 0.4316466,-0.3597 0.561151,-0.518 0.1438766,-0.1583 0.2445959,-0.3165 0.3021579,-0.4748 0.07193,-0.1727 0.107905,-0.3669 0.107914,-0.5827 -9e-6,-0.6619 -0.4532455,-0.9928 -1.3597121,-0.9928 m -1.9640287,8.0935 c 0.4604259,0 0.8417205,0.1367 1.1438848,0.41 0.3021516,0.259 0.4532306,0.6547 0.4532374,1.1871 -6.8e-6,0.2878 -0.057561,0.554 -0.1726618,0.7986 -0.1007261,0.2446 -0.2446108,0.4604 -0.4316547,0.6474 -0.172668,0.1727 -0.3741066,0.3094 -0.6043165,0.4101 -0.2302213,0.1007 -0.4748253,0.1511 -0.733813,0.1511 -0.4460476,0 -0.8273422,-0.1367 -1.1438848,-0.4101 -0.3021618,-0.2734 -0.4532407,-0.6762 -0.4532374,-1.2086 -3.3e-6,-0.3022 0.050356,-0.5755 0.1510791,-0.8202 0.1151043,-0.2446 0.2589891,-0.4532 0.4316547,-0.6259 0.1870462,-0.1726 0.3956791,-0.3021 0.6258992,-0.3884 0.2445996,-0.1008 0.4892036,-0.1511 0.733813,-0.1511"
         style="font-style:italic;font-weight:bold;fill:#666666;-inkscape-font-specification:Ubuntu Mono Bold Italic"
         id="path2988" />
    </g>
  </g>
</svg>
