<?xml version="1.0" encoding="UTF-8" standalone="no"?>
<!-- Created with Inkscape (http://www.inkscape.org/) -->

<svg
   xmlns:dc="http://purl.org/dc/elements/1.1/"
   xmlns:cc="http://creativecommons.org/ns#"
   xmlns:rdf="http://www.w3.org/1999/02/22-rdf-syntax-ns#"
   xmlns:svg="http://www.w3.org/2000/svg"
   xmlns="http://www.w3.org/2000/svg"
   xmlns:sodipodi="http://sodipodi.sourceforge.net/DTD/sodipodi-0.dtd"
   xmlns:inkscape="http://www.inkscape.org/namespaces/inkscape"
   width="16"
   height="16"
   id="svg2"
   version="1.1"
   inkscape:version="0.48.3.1 r9886"
   sodipodi:docname="info.svg">
  <defs
     id="defs4" />
  <sodipodi:namedview
     id="base"
     pagecolor="#ffffff"
     bordercolor="#666666"
     borderopacity="1.0"
     inkscape:pageopacity="0.0"
     inkscape:pageshadow="2"
     inkscape:zoom="15.839192"
     inkscape:cx="10.730678"
     inkscape:cy="12.078151"
     inkscape:document-units="px"
     inkscape:current-layer="layer1"
     showgrid="false"
     inkscape:window-width="1231"
     inkscape:window-height="776"
     inkscape:window-x="49"
     inkscape:window-y="24"
     inkscape:window-maximized="1" />
  <metadata
     id="metadata7">
    <rdf:RDF>
      <cc:Work
         rdf:about="">
        <dc:format>image/svg+xml</dc:format>
        <dc:type
           rdf:resource="http://purl.org/dc/dcmitype/StillImage" />
      </cc:Work>
    </rdf:RDF>
  </metadata>
  <g
     inkscape:label="Ebene 1"
     inkscape:groupmode="layer"
     id="layer1"
     transform="translate(0,-1036.3622)">
    <g
       style="font-size:21.58273315px;font-style:normal;font-variant:normal;font-weight:normal;font-stretch:normal;line-height:125%;letter-spacing:0px;word-spacing:0px;fill:#666666;fill-opacity:1;stroke:none;font-family:Ubuntu Mono;-inkscape-font-specification:Ubuntu Mono"
       id="text2985">
      <path
         d="m 11.541039,1051.2902 c -0.532384,0.2015 -1.03598,0.3382 -1.510792,0.4101 -0.4604391,0.072 -0.8920933,0.1079 -1.2949635,0.1079 -1.0215888,0 -1.7769837,-0.2446 -2.266187,-0.7338 -0.489213,-0.5036 -0.733817,-1.2086 -0.7338129,-2.1151 -4.1e-6,-0.4748 0.079133,-1.0288 0.23741,-1.6619 l 0.8633094,-3.669 -2.8057553,0 0.5395683,-2.2015 5.460431,0 -1.4676254,6.1943 c -0.086338,0.3021 -0.1295032,0.5683 -0.1294964,0.7985 -6.8e-6,0.7194 0.3668993,1.0792 1.1007194,1.0792 0.2445962,0 0.5323654,-0.022 0.8633094,-0.065 0.330926,-0.057 0.697832,-0.1583 1.100719,-0.3021 l 0.04317,2.1582 m -2.7410073,-11.0935 c -0.4604384,0 -0.8345387,-0.1223 -1.1223021,-0.3669 -0.2733871,-0.2446 -0.4100776,-0.6259 -0.410072,-1.1439 -5.6e-6,-0.2734 0.050354,-0.5252 0.1510792,-0.7554 0.1007135,-0.2446 0.2302098,-0.446 0.3884892,-0.6043 0.1726555,-0.1583 0.3668999,-0.2806 0.5827338,-0.3669 0.2158203,-0.1007 0.4388417,-0.1511 0.6690647,-0.1511 0.4172583,0 0.7769702,0.1223 1.0791365,0.3669 0.316538,0.2446 0.474811,0.6403 0.47482,1.1871 -9e-6,0.259 -0.05756,0.5036 -0.172662,0.7338 -0.100728,0.2302 -0.237418,0.4245 -0.410072,0.5827 -0.1726696,0.1583 -0.366914,0.2878 -0.5827333,0.3885 -0.2158349,0.086 -0.4316621,0.1295 -0.647482,0.1295"
         style="font-style:italic;font-weight:bold;fill:#666666;-inkscape-font-specification:Ubuntu Mono Bold Italic"
         id="path2985" />
    </g>
  </g>
</svg>
