<?xml version="1.0" encoding="UTF-8" standalone="no"?>
<!-- Created with Inkscape (http://www.inkscape.org/) -->

<svg
   xmlns:dc="http://purl.org/dc/elements/1.1/"
   xmlns:cc="http://creativecommons.org/ns#"
   xmlns:rdf="http://www.w3.org/1999/02/22-rdf-syntax-ns#"
   xmlns:svg="http://www.w3.org/2000/svg"
   xmlns="http://www.w3.org/2000/svg"
   xmlns:sodipodi="http://sodipodi.sourceforge.net/DTD/sodipodi-0.dtd"
   xmlns:inkscape="http://www.inkscape.org/namespaces/inkscape"
   width="450"
   height="450"
   id="svg3119"
   version="1.1"
   inkscape:version="0.48.3.1 r9886"
   sodipodi:docname="pomidor.svg">
  <defs
     id="defs3121" />
  <sodipodi:namedview
     id="base"
     pagecolor="#ffffff"
     bordercolor="#666666"
     borderopacity="1.0"
     inkscape:pageopacity="0.74509804"
     inkscape:pageshadow="2"
     inkscape:zoom="0.35"
     inkscape:cx="-124.64507"
     inkscape:cy="405.95777"
     inkscape:document-units="px"
     inkscape:current-layer="g3094"
     showgrid="false"
     inkscape:window-width="1280"
     inkscape:window-height="776"
     inkscape:window-x="0"
     inkscape:window-y="24"
     inkscape:window-maximized="1"
     height="744.09px"
     fit-margin-top="0"
     fit-margin-right="0"
     fit-margin-bottom="0"
     fit-margin-left="0"
     showborder="true"
     inkscape:showpageshadow="false"
     borderlayer="false" />
  <metadata
     id="metadata3124">
    <rdf:RDF>
      <cc:Work
         rdf:about="">
        <dc:format>image/svg+xml</dc:format>
        <dc:type
           rdf:resource="http://purl.org/dc/dcmitype/StillImage" />
        <dc:title></dc:title>
      </cc:Work>
    </rdf:RDF>
  </metadata>
  <g
     inkscape:label="Ebene 1"
     inkscape:groupmode="layer"
     id="layer1"
     transform="translate(-91.787926,-488.32401)">
    <g
       transform="translate(-7.3851537,-33.377539)"
       id="g3094">
      <g
         id="g3146"
         transform="translate(-40.857142,391.42857)">
        <path
           sodipodi:type="arc"
           style="fill:#1a1a1a"
           id="path2987"
           sodipodi:cx="394.3988"
           sodipodi:cy="434.2179"
           sodipodi:rx="183.92636"
           sodipodi:ry="183.92636"
           d="m 578.32516,434.2179 c 0,101.57972 -82.34663,183.92636 -183.92636,183.92636 -101.57972,0 -183.92636,-82.34664 -183.92636,-183.92636 0,-101.57973 82.34664,-183.92637 183.92636,-183.92637 101.57973,0 183.92636,82.34664 183.92636,183.92637 z"
           transform="translate(-28.442221,-49.29985)" />
        <path
           sodipodi:type="arc"
           style="fill:#f9f9f9"
           id="path2989"
           sodipodi:cx="420.94489"
           sodipodi:cy="415.25644"
           sodipodi:rx="134.62651"
           sodipodi:ry="134.62651"
           d="m 555.5714,415.25644 c 0,74.35217 -60.27435,134.62651 -134.62651,134.62651 -74.35217,0 -134.62652,-60.27434 -134.62652,-134.62651 0,-74.35217 60.27435,-134.62651 134.62652,-134.62651 74.35216,0 134.62651,60.27434 134.62651,134.62651 z"
           transform="translate(-54.988303,-30.338394)" />
        <rect
           style="fill:#1a1a1a"
           id="rect3082"
           width="50"
           height="35.897434"
           x="321.50055"
           y="29.602829"
           ry="6.4285712"
           rx="5.7142859"
           transform="matrix(0.75251656,0.65857332,-0.65857332,0.75251656,0,0)" />
        <rect
           style="fill:#1a1a1a"
           id="rect3024"
           width="29.450001"
           height="111.096"
           x="351.23157"
           y="286.71017"
           ry="14.159291" />
        <rect
           style="fill:#1a1a1a"
           id="rect3024-9"
           width="29.450001"
           height="90.396019"
           x="-81.330391"
           y="514.20203"
           ry="11.521061"
           transform="matrix(0.63166239,-0.77524359,0.77524359,0.63166239,0,0)" />
        <path
           style="fill:#1a1a1a"
           d="m 398.39048,152.62141 c -37.79502,-17.71151 -83.00963,-1.28131 -101.01133,36.65191 -2.74961,5.79395 -4.71979,11.74843 -5.92458,17.754 46.19685,-20.7349 100.27862,-22.23207 149.00402,0.4478 -4.15358,-23.22464 -19.11272,-44.09635 -42.06811,-54.85371 z"
           id="path3005-0"
           inkscape:connector-curvature="0" />
      </g>
    </g>
  </g>
</svg>
